Coordinates
version=1
nRows=19
nColumns=24
inDegrees=yes

Units are S.I. units (second, meters, Newtons, ...)
Angles are in degrees.

endheader
time	pelvis_tilt	pelvis_list	pelvis_rotation	pelvis_tx	pelvis_ty	pelvis_tz	hip_flexion_r	hip_adduction_r	hip_rotation_r	knee_angle_r	ankle_angle_r	subtalar_angle_r	mtp_angle_r	hip_flexion_l	hip_adduction_l	hip_rotation_l	knee_angle_l	ankle_angle_l	subtalar_angle_l	mtp_angle_l	lumbar_extension	lumbar_bending	lumbar_rotation
      1.28300000	     -0.51609054	      1.77770790	     -4.56088198	      0.31105378	      1.07887228	      0.32509845	     15.58705936	     -5.95031562	     -6.84155169	    -67.63136226	      0.57238525	     -8.30859425	      1.54789763	     10.79109589	      4.29729248	      0.89470558	    -18.53832788	      9.87871140	      0.45080449	     -3.28770366	    -16.03131071	     -3.97280673	     -1.48379782
      1.28716667	     -0.51628398	      1.61779548	     -4.45243417	      0.31614346	      1.07995430	      0.32479902	     16.02590763	     -5.77229740	     -7.03893960	    -67.14565761	      0.86126447	     -8.03898152	      1.55042865	     10.27689926	      4.16355823	      0.98832506	    -18.11916915	      9.89487985	      0.52580033	     -3.28784752	    -16.03304470	     -3.72380657	     -1.57217543
      1.29133333	     -0.46446659	      1.48932394	     -4.33389086	      0.32118421	      1.08106511	      0.32448304	     16.40330507	     -5.63928824	     -7.24003150	    -66.62462082	      1.21614533	     -7.60552187	      1.55857967	      9.69812461	      4.07582144	      1.14741952	    -17.67073162	      9.94532049	      0.55721750	     -3.28706772	    -16.13099377	     -3.51986097	     -1.83433290
      1.29550000	     -0.43463678	      1.34504636	     -4.20562463	      0.32623802	      1.08210949	      0.32416160	     16.78604323	     -5.48348802	     -7.45262954	    -66.04388122	      1.54529888	     -7.19846263	      1.57451020	      9.14708317	      3.96444012	      1.29272116	    -17.23097897	      9.96632204	      0.59920361	     -3.28674972	    -16.18720169	     -3.28778106	     -2.04136675
      1.29966667	     -0.42428552	      1.20448395	     -4.07086726	      0.33128660	      1.08306693	      0.32384658	     17.17935687	     -5.32868571	     -7.66970599	    -65.41959472	      1.88281967	     -6.75645493	      1.59956214	      8.62224945	      3.85133661	      1.43390166	    -16.79713611	      9.98772062	      0.64711045	     -3.28598212	    -16.21901272	     -3.05769185	     -2.24522383
      1.30383333	     -0.41044340	      1.08099620	     -3.93049436	      0.33632513	      1.08397943	      0.32353241	     17.55996346	     -5.19223478	     -7.88704997	    -64.75456364	      2.23426798	     -6.29213615	      1.64153727	      8.09109090	      3.75655654	      1.58921891	    -16.34851597	      9.96819451	      0.66922209	     -3.28617786	    -16.25600011	     -2.84567281	     -2.49884684
      1.30800000	     -0.39328495	      0.93574828	     -3.78294771	      0.34135002	      1.08486065	      0.32322022	     17.91726589	     -5.02809785	     -8.11093551	    -64.02718366	      2.55355318	     -5.81891738	      1.67553271	      7.56867854	      3.63203299	      1.72700841	    -15.93051321	     10.00937354	      0.73728333	     -3.28491691	    -16.29675083	     -2.62452248	     -2.63797523
      1.31216667	     -0.37797909	      0.81283483	     -3.63350192	      0.34637129	      1.08567055	      0.32290988	     18.27186027	     -4.89076420	     -8.33576380	    -63.27156477	      2.89902788	     -5.31150220	      1.71641325	      7.04676089	      3.53021185	      1.86692730	    -15.49968228	     10.03272564	      0.79200521	     -3.28410869	    -16.33476227	     -2.41285426	     -2.83355408
      1.31633333	     -0.34034818	      0.71198921	     -3.48620255	      0.35139265	      1.08646266	      0.32259898	     18.59612110	     -4.78053417	     -8.55641659	    -62.48398238	      3.24428683	     -4.80494012	      1.77242564	      6.48926332	      3.45443167	      2.03098548	    -15.04001310	     10.06205711	      0.81922025	     -3.28293692	    -16.39062245	     -2.20829337	     -3.08839398
      1.32050000	     -0.35874864	      0.60672619	     -3.33138893	      0.35642221	      1.08709554	      0.32229294	     18.96793752	     -4.65793227	     -8.77777719	    -61.65367726	      3.57557480	     -4.30476684	      1.83201776	      6.00744130	      3.36573224	      2.18468386	    -14.61057105	     10.08519399	      0.85056775	     -3.28198788	    -16.38088905	     -2.01378172	     -3.30170736
      1.32466667	     -0.33975937	      0.51179424	     -3.18086868	      0.36142925	      1.08775384	      0.32201928	     19.28824342	     -4.54118563	     -8.98657721	    -60.77877648	      3.90163124	     -3.83673946	      1.91945613	      5.47891485	      3.28646409	      2.34487092	    -14.16153412	     10.06295712	      0.86070218	     -3.28202241	    -16.42315125	     -1.82901638	     -3.55526172
      1.32883333	     -0.36055237	      0.41688483	     -3.02762808	      0.36645704	      1.08827016	      0.32173773	     19.64076107	     -4.42423368	     -9.19927438	    -59.87007500	      4.20690807	     -3.35626558	      1.98447490	      5.00612737	      3.20161976	      2.48430074	    -13.74440221	     10.12493557	      0.91203777	     -3.28008219	    -16.40247755	     -1.64510638	     -3.72128743
      1.33300000	     -0.37102316	      0.33741747	     -2.88022977	      0.37147412	      1.08874735	      0.32148462	     19.97393009	     -4.31891545	     -9.39654029	    -58.92659831	      4.51506930	     -2.90373722	      2.05970497	      4.51993516	      3.13093673	      2.62712385	    -13.31717520	     10.15046857	      0.94906261	     -3.27926479	    -16.40231389	     -1.48190925	     -3.93335078
      1.33716667	     -0.38737922	      0.26420611	     -2.73420684	      0.37648124	      1.08914908	      0.32125417	     20.30389909	     -4.21582452	     -9.58670387	    -57.94884435	      4.81177678	     -2.47544136	      2.14206381	      4.04519103	      3.06274087	      2.76636110	    -12.89725356	     10.17621438	      0.98044035	     -3.27816405	    -16.39584047	     -1.32773753	     -4.14162100
      1.34133333	     -0.41540042	      0.19975072	     -2.59373112	      0.38149247	      1.08946657	      0.32103215	     20.63759348	     -4.11860423	     -9.76506108	    -56.93889509	      5.09833286	     -2.06539229	      2.22458703	      3.58579512	      3.00083291	      2.89687326	    -12.48335250	     10.21404660	      1.01866665	     -3.27669139	    -16.37098463	     -1.18336113	     -4.33233703
      1.34550000	     -0.44689601	      0.13639370	     -2.45392547	      0.38651186	      1.08974277	      0.32083199	     20.95853999	     -4.01794636	     -9.93845048	    -55.88412833	      5.36358677	     -1.69287230	      2.30457742	      3.13205365	      2.93663363	      3.02570978	    -12.07366484	     10.25831891	      1.05434721	     -3.27527575	    -16.33944977	     -1.04059112	     -4.51646616
      1.34966667	     -0.50445638	      0.07624253	     -2.32922211	      0.39153366	      1.08990311	      0.32067258	     21.29904976	     -3.90759835	    -10.08214748	    -54.79544711	      5.61068348	     -1.38196977	      2.34916512	      2.71671664	      2.86840034	      3.10697230	    -11.68590807	     10.28766209	      1.12213579	     -3.27430818	    -16.27520924	     -0.90978444	     -4.62146548
      1.35383333	     -0.52184520	      0.04656161	     -2.20182556	      0.39652118	      1.09005666	      0.32051064	     21.59238007	     -3.83821632	    -10.22544129	    -53.69270409	      5.88508602	     -1.02787291	      2.44679980	      2.24670509	      2.83917188	      3.25888499	    -11.26877238	     10.34020077	      1.13148804	     -3.27252273	    -16.27313675	     -0.80813311	     -4.88192858
      1.35800000	     -0.58556735	     -0.00158772	     -2.08766014	      0.40155069	      1.09010574	      0.32038975	     21.91312626	     -3.73169145	    -10.34526850	    -52.53030864	      6.10126107	     -0.77094466	      2.49225842	      1.84251066	      2.77939991	      3.33159025	    -10.89287195	     10.39163899	      1.19307760	     -3.27111214	    -16.19197661	     -0.69365048	     -4.97081265
